<svg id="visual" viewBox="0 0 1920 1080" width="1920" height="1080" xmlns="http://www.w3.org/2000/svg" xmlns:xlink="http://www.w3.org/1999/xlink" version="1.1"><path d="M0 98L83 98L83 98L167 98L167 55L250 55L250 66L334 66L334 98L417 98L417 66L501 66L501 109L584 109L584 109L668 109L668 23L751 23L751 120L835 120L835 109L918 109L918 87L1002 87L1002 44L1085 44L1085 23L1169 23L1169 33L1252 33L1252 109L1336 109L1336 44L1419 44L1419 66L1503 66L1503 23L1586 23L1586 12L1670 12L1670 66L1753 66L1753 12L1837 12L1837 87L1920 87L1920 77L1920 0L1920 0L1837 0L1837 0L1753 0L1753 0L1670 0L1670 0L1586 0L1586 0L1503 0L1503 0L1419 0L1419 0L1336 0L1336 0L1252 0L1252 0L1169 0L1169 0L1085 0L1085 0L1002 0L1002 0L918 0L918 0L835 0L835 0L751 0L751 0L668 0L668 0L584 0L584 0L501 0L501 0L417 0L417 0L334 0L334 0L250 0L250 0L167 0L167 0L83 0L83 0L0 0Z" fill="#ffffff"></path><path d="M0 152L83 152L83 120L167 120L167 109L250 109L250 98L334 98L334 120L417 120L417 109L501 109L501 152L584 152L584 174L668 174L668 66L751 66L751 217L835 217L835 120L918 120L918 195L1002 195L1002 87L1085 87L1085 120L1169 120L1169 131L1252 131L1252 195L1336 195L1336 66L1419 66L1419 66L1503 66L1503 33L1586 33L1586 44L1670 44L1670 141L1753 141L1753 120L1837 120L1837 141L1920 141L1920 77L1920 75L1920 85L1837 85L1837 10L1753 10L1753 64L1670 64L1670 10L1586 10L1586 21L1503 21L1503 64L1419 64L1419 42L1336 42L1336 107L1252 107L1252 31L1169 31L1169 21L1085 21L1085 42L1002 42L1002 85L918 85L918 107L835 107L835 118L751 118L751 21L668 21L668 107L584 107L584 107L501 107L501 64L417 64L417 96L334 96L334 64L250 64L250 53L167 53L167 96L83 96L83 96L0 96Z" fill="#fffdf9"></path><path d="M0 206L83 206L83 152L167 152L167 109L250 109L250 98L334 98L334 195L417 195L417 152L501 152L501 185L584 185L584 260L668 260L668 141L751 141L751 260L835 260L835 217L918 217L918 271L1002 271L1002 109L1085 109L1085 174L1169 174L1169 174L1252 174L1252 195L1336 195L1336 66L1419 66L1419 87L1503 87L1503 98L1586 98L1586 77L1670 77L1670 174L1753 174L1753 217L1837 217L1837 185L1920 185L1920 163L1920 75L1920 139L1837 139L1837 118L1753 118L1753 139L1670 139L1670 42L1586 42L1586 31L1503 31L1503 64L1419 64L1419 64L1336 64L1336 193L1252 193L1252 129L1169 129L1169 118L1085 118L1085 85L1002 85L1002 193L918 193L918 118L835 118L835 215L751 215L751 64L668 64L668 172L584 172L584 150L501 150L501 107L417 107L417 118L334 118L334 96L250 96L250 107L167 107L167 118L83 118L83 150L0 150Z" fill="#fffbf2"></path><path d="M0 325L83 325L83 195L167 195L167 314L250 314L250 163L334 163L334 260L417 260L417 368L501 368L501 368L584 368L584 487L668 487L668 325L751 325L751 444L835 444L835 271L918 271L918 433L1002 433L1002 411L1085 411L1085 347L1169 347L1169 314L1252 314L1252 249L1336 249L1336 120L1419 120L1419 174L1503 174L1503 325L1586 325L1586 325L1670 325L1670 476L1753 476L1753 368L1837 368L1837 325L1920 325L1920 195L1920 161L1920 183L1837 183L1837 215L1753 215L1753 172L1670 172L1670 75L1586 75L1586 96L1503 96L1503 85L1419 85L1419 64L1336 64L1336 193L1252 193L1252 172L1169 172L1169 172L1085 172L1085 107L1002 107L1002 269L918 269L918 215L835 215L835 258L751 258L751 139L668 139L668 258L584 258L584 183L501 183L501 150L417 150L417 193L334 193L334 96L250 96L250 107L167 107L167 150L83 150L83 204L0 204Z" fill="#fff9ec"></path><path d="M0 390L83 390L83 228L167 228L167 325L250 325L250 217L334 217L334 260L417 260L417 411L501 411L501 476L584 476L584 509L668 509L668 422L751 422L751 465L835 465L835 336L918 336L918 530L1002 530L1002 455L1085 455L1085 357L1169 357L1169 390L1252 390L1252 325L1336 325L1336 195L1419 195L1419 228L1503 228L1503 390L1586 390L1586 347L1670 347L1670 530L1753 530L1753 444L1837 444L1837 390L1920 390L1920 260L1920 193L1920 323L1837 323L1837 366L1753 366L1753 474L1670 474L1670 323L1586 323L1586 323L1503 323L1503 172L1419 172L1419 118L1336 118L1336 247L1252 247L1252 312L1169 312L1169 345L1085 345L1085 409L1002 409L1002 431L918 431L918 269L835 269L835 442L751 442L751 323L668 323L668 485L584 485L584 366L501 366L501 366L417 366L417 258L334 258L334 161L250 161L250 312L167 312L167 193L83 193L83 323L0 323Z" fill="#fff7e5"></path><path d="M0 422L83 422L83 314L167 314L167 390L250 390L250 260L334 260L334 293L417 293L417 433L501 433L501 509L584 509L584 573L668 573L668 498L751 498L751 509L835 509L835 336L918 336L918 530L1002 530L1002 487L1085 487L1085 444L1169 444L1169 390L1252 390L1252 411L1336 411L1336 239L1419 239L1419 228L1503 228L1503 422L1586 422L1586 347L1670 347L1670 552L1753 552L1753 444L1837 444L1837 390L1920 390L1920 325L1920 258L1920 388L1837 388L1837 442L1753 442L1753 528L1670 528L1670 345L1586 345L1586 388L1503 388L1503 226L1419 226L1419 193L1336 193L1336 323L1252 323L1252 388L1169 388L1169 355L1085 355L1085 453L1002 453L1002 528L918 528L918 334L835 334L835 463L751 463L751 420L668 420L668 507L584 507L584 474L501 474L501 409L417 409L417 258L334 258L334 215L250 215L250 323L167 323L167 226L83 226L83 388L0 388Z" fill="#fff5df"></path><path d="M0 584L83 584L83 379L167 379L167 563L250 563L250 433L334 433L334 638L417 638L417 779L501 779L501 649L584 649L584 746L668 746L668 671L751 671L751 584L835 584L835 519L918 519L918 638L1002 638L1002 681L1085 681L1085 800L1169 800L1169 638L1252 638L1252 735L1336 735L1336 444L1419 444L1419 671L1503 671L1503 595L1586 595L1586 509L1670 509L1670 660L1753 660L1753 455L1837 455L1837 617L1920 617L1920 606L1920 323L1920 388L1837 388L1837 442L1753 442L1753 550L1670 550L1670 345L1586 345L1586 420L1503 420L1503 226L1419 226L1419 237L1336 237L1336 409L1252 409L1252 388L1169 388L1169 442L1085 442L1085 485L1002 485L1002 528L918 528L918 334L835 334L835 507L751 507L751 496L668 496L668 571L584 571L584 507L501 507L501 431L417 431L417 291L334 291L334 258L250 258L250 388L167 388L167 312L83 312L83 420L0 420Z" fill="#fff3d9"></path><path d="M0 606L83 606L83 401L167 401L167 714L250 714L250 563L334 563L334 681L417 681L417 833L501 833L501 714L584 714L584 833L668 833L668 768L751 768L751 606L835 606L835 584L918 584L918 703L1002 703L1002 692L1085 692L1085 833L1169 833L1169 768L1252 768L1252 800L1336 800L1336 552L1419 552L1419 725L1503 725L1503 703L1586 703L1586 649L1670 649L1670 681L1753 681L1753 455L1837 455L1837 735L1920 735L1920 671L1920 604L1920 615L1837 615L1837 453L1753 453L1753 658L1670 658L1670 507L1586 507L1586 593L1503 593L1503 669L1419 669L1419 442L1336 442L1336 733L1252 733L1252 636L1169 636L1169 798L1085 798L1085 679L1002 679L1002 636L918 636L918 517L835 517L835 582L751 582L751 669L668 669L668 744L584 744L584 647L501 647L501 777L417 777L417 636L334 636L334 431L250 431L250 561L167 561L167 377L83 377L83 582L0 582Z" fill="#fef1d3"></path><path d="M0 725L83 725L83 519L167 519L167 811L250 811L250 703L334 703L334 735L417 735L417 908L501 908L501 833L584 833L584 887L668 887L668 908L751 908L751 757L835 757L835 671L918 671L918 746L1002 746L1002 735L1085 735L1085 854L1169 854L1169 843L1252 843L1252 908L1336 908L1336 606L1419 606L1419 897L1503 897L1503 800L1586 800L1586 800L1670 800L1670 768L1753 768L1753 627L1837 627L1837 876L1920 876L1920 735L1920 669L1920 733L1837 733L1837 453L1753 453L1753 679L1670 679L1670 647L1586 647L1586 701L1503 701L1503 723L1419 723L1419 550L1336 550L1336 798L1252 798L1252 766L1169 766L1169 831L1085 831L1085 690L1002 690L1002 701L918 701L918 582L835 582L835 604L751 604L751 766L668 766L668 831L584 831L584 712L501 712L501 831L417 831L417 679L334 679L334 561L250 561L250 712L167 712L167 399L83 399L83 604L0 604Z" fill="#fef0cc"></path><path d="M0 897L83 897L83 573L167 573L167 951L250 951L250 822L334 822L334 865L417 865L417 1027L501 1027L501 876L584 876L584 973L668 973L668 1005L751 1005L751 865L835 865L835 854L918 854L918 908L1002 908L1002 887L1085 887L1085 941L1169 941L1169 876L1252 876L1252 973L1336 973L1336 789L1419 789L1419 1005L1503 1005L1503 811L1586 811L1586 843L1670 843L1670 779L1753 779L1753 746L1837 746L1837 973L1920 973L1920 757L1920 733L1920 874L1837 874L1837 625L1753 625L1753 766L1670 766L1670 798L1586 798L1586 798L1503 798L1503 895L1419 895L1419 604L1336 604L1336 906L1252 906L1252 841L1169 841L1169 852L1085 852L1085 733L1002 733L1002 744L918 744L918 669L835 669L835 755L751 755L751 906L668 906L668 885L584 885L584 831L501 831L501 906L417 906L417 733L334 733L334 701L250 701L250 809L167 809L167 517L83 517L83 723L0 723Z" fill="#feeec6"></path><path d="M0 1081L83 1081L83 1081L167 1081L167 1081L250 1081L250 1081L334 1081L334 1081L417 1081L417 1081L501 1081L501 1081L584 1081L584 1081L668 1081L668 1081L751 1081L751 1081L835 1081L835 1081L918 1081L918 1081L1002 1081L1002 1081L1085 1081L1085 1081L1169 1081L1169 1081L1252 1081L1252 1081L1336 1081L1336 1081L1419 1081L1419 1081L1503 1081L1503 1081L1586 1081L1586 1081L1670 1081L1670 1081L1753 1081L1753 1081L1837 1081L1837 1081L1920 1081L1920 1081L1920 755L1920 971L1837 971L1837 744L1753 744L1753 777L1670 777L1670 841L1586 841L1586 809L1503 809L1503 1003L1419 1003L1419 787L1336 787L1336 971L1252 971L1252 874L1169 874L1169 939L1085 939L1085 885L1002 885L1002 906L918 906L918 852L835 852L835 863L751 863L751 1003L668 1003L668 971L584 971L584 874L501 874L501 1025L417 1025L417 863L334 863L334 820L250 820L250 949L167 949L167 571L83 571L83 895L0 895Z" fill="#fdecc0"></path></svg>