<svg id="visual" viewBox="0 0 1920 1080" width="1920" height="1080" xmlns="http://www.w3.org/2000/svg" xmlns:xlink="http://www.w3.org/1999/xlink" version="1.1"><rect x="0" y="0" width="1920" height="1080" fill="#fffefe"></rect><defs><linearGradient id="grad1_0" x1="43.8%" y1="0%" x2="100%" y2="100%"><stop offset="14.444444444444446%" stop-color="#f4e0b2" stop-opacity="1"></stop><stop offset="85.55555555555554%" stop-color="#f4e0b2" stop-opacity="1"></stop></linearGradient></defs><defs><linearGradient id="grad1_1" x1="43.8%" y1="0%" x2="100%" y2="100%"><stop offset="14.444444444444446%" stop-color="#f4e0b2" stop-opacity="1"></stop><stop offset="85.55555555555554%" stop-color="#ffe3c2" stop-opacity="1"></stop></linearGradient></defs><defs><linearGradient id="grad1_2" x1="43.8%" y1="0%" x2="100%" y2="100%"><stop offset="14.444444444444446%" stop-color="#ffe8d4" stop-opacity="1"></stop><stop offset="85.55555555555554%" stop-color="#ffe3c2" stop-opacity="1"></stop></linearGradient></defs><defs><linearGradient id="grad1_3" x1="43.8%" y1="0%" x2="100%" y2="100%"><stop offset="14.444444444444446%" stop-color="#ffe8d4" stop-opacity="1"></stop><stop offset="85.55555555555554%" stop-color="#ffeee4" stop-opacity="1"></stop></linearGradient></defs><defs><linearGradient id="grad1_4" x1="43.8%" y1="0%" x2="100%" y2="100%"><stop offset="14.444444444444446%" stop-color="#fff5f3" stop-opacity="1"></stop><stop offset="85.55555555555554%" stop-color="#ffeee4" stop-opacity="1"></stop></linearGradient></defs><defs><linearGradient id="grad1_5" x1="43.8%" y1="0%" x2="100%" y2="100%"><stop offset="14.444444444444446%" stop-color="#fff5f3" stop-opacity="1"></stop><stop offset="85.55555555555554%" stop-color="#fffefe" stop-opacity="1"></stop></linearGradient></defs><defs><linearGradient id="grad2_0" x1="0%" y1="0%" x2="56.3%" y2="100%"><stop offset="14.444444444444446%" stop-color="#f4e0b2" stop-opacity="1"></stop><stop offset="85.55555555555554%" stop-color="#f4e0b2" stop-opacity="1"></stop></linearGradient></defs><defs><linearGradient id="grad2_1" x1="0%" y1="0%" x2="56.3%" y2="100%"><stop offset="14.444444444444446%" stop-color="#ffe3c2" stop-opacity="1"></stop><stop offset="85.55555555555554%" stop-color="#f4e0b2" stop-opacity="1"></stop></linearGradient></defs><defs><linearGradient id="grad2_2" x1="0%" y1="0%" x2="56.3%" y2="100%"><stop offset="14.444444444444446%" stop-color="#ffe3c2" stop-opacity="1"></stop><stop offset="85.55555555555554%" stop-color="#ffe8d4" stop-opacity="1"></stop></linearGradient></defs><defs><linearGradient id="grad2_3" x1="0%" y1="0%" x2="56.3%" y2="100%"><stop offset="14.444444444444446%" stop-color="#ffeee4" stop-opacity="1"></stop><stop offset="85.55555555555554%" stop-color="#ffe8d4" stop-opacity="1"></stop></linearGradient></defs><defs><linearGradient id="grad2_4" x1="0%" y1="0%" x2="56.3%" y2="100%"><stop offset="14.444444444444446%" stop-color="#ffeee4" stop-opacity="1"></stop><stop offset="85.55555555555554%" stop-color="#fff5f3" stop-opacity="1"></stop></linearGradient></defs><defs><linearGradient id="grad2_5" x1="0%" y1="0%" x2="56.3%" y2="100%"><stop offset="14.444444444444446%" stop-color="#fffefe" stop-opacity="1"></stop><stop offset="85.55555555555554%" stop-color="#fff5f3" stop-opacity="1"></stop></linearGradient></defs><g transform="translate(1920, 0)"><path d="M0 1080C-176.1 1031.4 -352.2 982.9 -519 898.9C-685.8 815 -843.4 695.7 -935.3 540C-1027.3 384.3 -1053.6 192.1 -1080 0L0 0Z" fill="#fffaf9"></path><path d="M0 900C-146.7 859.5 -293.5 819.1 -432.5 749.1C-571.5 679.2 -702.8 579.8 -779.4 450C-856.1 320.2 -878 160.1 -900 0L0 0Z" fill="#fff1ec"></path><path d="M0 720C-117.4 687.6 -234.8 655.2 -346 599.3C-457.2 543.3 -562.2 463.8 -623.5 360C-684.8 256.2 -702.4 128.1 -720 0L0 0Z" fill="#ffeadc"></path><path d="M0 540C-88 515.7 -176.1 491.4 -259.5 449.5C-342.9 407.5 -421.7 347.9 -467.7 270C-513.6 192.1 -526.8 96.1 -540 0L0 0Z" fill="#ffe5cb"></path><path d="M0 360C-58.7 343.8 -117.4 327.6 -173 299.6C-228.6 271.7 -281.1 231.9 -311.8 180C-342.4 128.1 -351.2 64 -360 0L0 0Z" fill="#fae1ba"></path><path d="M0 180C-29.3 171.9 -58.7 163.8 -86.5 149.8C-114.3 135.8 -140.6 116 -155.9 90C-171.2 64 -175.6 32 -180 0L0 0Z" fill="#f4e0b2"></path></g><g transform="translate(0, 1080)"><path d="M0 -1080C178.2 -1035.1 356.5 -990.3 523 -905.9C689.5 -821.5 844.4 -697.6 935.3 -540C1026.2 -382.4 1053.1 -191.2 1080 0L0 0Z" fill="#fffaf9"></path><path d="M0 -900C148.5 -862.6 297 -825.2 435.8 -754.9C574.6 -684.6 703.7 -581.3 779.4 -450C855.2 -318.7 877.6 -159.3 900 0L0 0Z" fill="#fff1ec"></path><path d="M0 -720C118.8 -690.1 237.6 -660.2 348.7 -603.9C459.7 -547.6 562.9 -465 623.5 -360C684.1 -255 702.1 -127.5 720 0L0 0Z" fill="#ffeadc"></path><path d="M0 -540C89.1 -517.6 178.2 -495.1 261.5 -452.9C344.8 -410.7 422.2 -348.8 467.7 -270C513.1 -191.2 526.5 -95.6 540 0L0 0Z" fill="#ffe5cb"></path><path d="M0 -360C59.4 -345 118.8 -330.1 174.3 -302C229.8 -273.8 281.5 -232.5 311.8 -180C342.1 -127.5 351 -63.7 360 0L0 0Z" fill="#fae1ba"></path><path d="M0 -180C29.7 -172.5 59.4 -165 87.2 -151C114.9 -136.9 140.7 -116.3 155.9 -90C171 -63.7 175.5 -31.9 180 0L0 0Z" fill="#f4e0b2"></path></g></svg>